<svg xmlns="http://www.w3.org/2000/svg" xmlns:xlink="http://www.w3.org/1999/xlink" width="600" zoomAndPan="magnify" viewBox="0 0 450 449.999984" height="600" preserveAspectRatio="xMidYMid meet" version="1.0"><defs><clipPath id="d604b14d56"><path d="M 0.207031 0 L 450 0.207031 L 450 0 Z M 0 0 L 0 449.792969 L 0.207031 0 Z M 450 0.207031 L 449.792969 449.792969 L 0 449.792969 L 0 450 L 450 450 Z M 450 0.207031 " clip-rule="nonzero"/></clipPath><clipPath id="2479e0a64f"><path d="M 185.417969 284.167969 L 200 284.167969 L 200 301.25 L 185.417969 301.25 Z M 185.417969 284.167969 " clip-rule="nonzero"/></clipPath><clipPath id="5b7290ef3d"><path d="M 185.6875 285.425781 C 185.6875 284.929688 186.113281 284.503906 186.609375 284.503906 L 186.867188 284.503906 C 187.292969 284.503906 187.550781 284.714844 187.8125 285.046875 L 197.859375 297.855469 L 197.859375 285.375 C 197.859375 284.878906 198.261719 284.453125 198.777344 284.453125 C 199.273438 284.453125 199.675781 284.878906 199.675781 285.375 L 199.675781 300.3125 C 199.675781 300.808594 199.320312 301.1875 198.824219 301.1875 L 198.730469 301.1875 C 198.328125 301.1875 198.046875 300.949219 197.761719 300.617188 L 187.503906 287.5 L 187.503906 300.308594 C 187.503906 300.804688 187.105469 301.230469 186.582031 301.230469 C 186.085938 301.230469 185.6875 300.804688 185.6875 300.308594 Z M 185.6875 285.425781 " clip-rule="nonzero"/></clipPath><clipPath id="9cc42e4a22"><path d="M 209.582031 284.167969 L 223.75 284.167969 L 223.75 301.667969 L 209.582031 301.667969 Z M 209.582031 284.167969 " clip-rule="nonzero"/></clipPath><clipPath id="ceb98e514a"><path d="M 209.785156 294.191406 L 209.785156 285.398438 C 209.785156 284.878906 210.207031 284.453125 210.703125 284.453125 C 211.226562 284.453125 211.644531 284.878906 211.644531 285.398438 L 211.644531 294.074219 C 211.644531 297.640625 213.5625 299.648438 216.703125 299.648438 C 219.753906 299.648438 221.691406 297.808594 221.691406 294.191406 L 221.691406 285.398438 C 221.691406 284.878906 222.117188 284.453125 222.636719 284.453125 C 223.128906 284.453125 223.558594 284.878906 223.558594 285.398438 L 223.558594 294.050781 C 223.558594 298.871094 220.792969 301.375 216.660156 301.375 C 212.570312 301.375 209.777344 298.871094 209.777344 294.191406 " clip-rule="nonzero"/></clipPath><clipPath id="a4a4d6831f"><path d="M 232.082031 284.167969 L 245.832031 284.167969 L 245.832031 301.25 L 232.082031 301.25 Z M 232.082031 284.167969 " clip-rule="nonzero"/></clipPath><clipPath id="94b228b322"><path d="M 238.042969 286.300781 L 233.242188 286.300781 C 232.769531 286.300781 232.371094 285.921875 232.371094 285.449219 C 232.371094 284.980469 232.769531 284.574219 233.242188 284.574219 L 244.730469 284.574219 C 245.203125 284.574219 245.609375 284.980469 245.609375 285.449219 C 245.609375 285.921875 245.203125 286.300781 244.730469 286.300781 L 239.929688 286.300781 L 239.929688 300.292969 C 239.929688 300.8125 239.503906 301.238281 238.984375 301.238281 C 238.464844 301.238281 238.039062 300.8125 238.039062 300.292969 Z M 238.042969 286.300781 " clip-rule="nonzero"/></clipPath><clipPath id="5b3d0fed6f"><path d="M 254.582031 284.167969 L 267.917969 284.167969 L 267.917969 301.25 L 254.582031 301.25 Z M 254.582031 284.167969 " clip-rule="nonzero"/></clipPath><clipPath id="ef5d1ee415"><path d="M 261.613281 293.011719 C 264.097656 293.011719 265.867188 291.738281 265.867188 289.609375 L 265.867188 289.5625 C 265.867188 287.527344 264.3125 286.300781 261.640625 286.300781 L 256.535156 286.300781 L 256.535156 293.011719 Z M 254.667969 285.519531 C 254.667969 285 255.089844 284.574219 255.585938 284.574219 L 261.773438 284.574219 C 263.808594 284.574219 265.441406 285.191406 266.484375 286.230469 C 267.289062 287.035156 267.753906 288.195312 267.753906 289.492188 L 267.753906 289.539062 C 267.753906 292.257812 265.914062 293.839844 263.335938 294.335938 L 267.449219 299.632812 C 267.636719 299.847656 267.753906 300.058594 267.753906 300.316406 C 267.753906 300.8125 267.285156 301.238281 266.8125 301.238281 C 266.429688 301.238281 266.148438 301.023438 265.9375 300.742188 L 261.277344 294.691406 L 256.527344 294.691406 L 256.527344 300.292969 C 256.527344 300.8125 256.105469 301.238281 255.582031 301.238281 C 255.082031 301.238281 254.664062 300.8125 254.664062 300.292969 Z M 254.667969 285.519531 " clip-rule="nonzero"/></clipPath><clipPath id="427ebb2bd3"><path d="M 277.5 284.167969 L 279.582031 284.167969 L 279.582031 301.25 L 277.5 301.25 Z M 277.5 284.167969 " clip-rule="nonzero"/></clipPath><clipPath id="ea23fd2f8f"><path d="M 277.605469 285.398438 C 277.605469 284.878906 278.027344 284.453125 278.527344 284.453125 C 279.050781 284.453125 279.476562 284.878906 279.476562 285.398438 L 279.476562 300.292969 C 279.476562 300.8125 279.050781 301.234375 278.527344 301.234375 C 278.027344 301.234375 277.605469 300.808594 277.605469 300.292969 Z M 277.605469 285.398438 " clip-rule="nonzero"/></clipPath><clipPath id="c363a0384f"><path d="M 288.332031 284.167969 L 302 284.167969 L 302 301.25 L 288.332031 301.25 Z M 288.332031 284.167969 " clip-rule="nonzero"/></clipPath><clipPath id="7e2885b976"><path d="M 294.371094 286.300781 L 289.566406 286.300781 C 289.097656 286.300781 288.695312 285.921875 288.695312 285.449219 C 288.695312 284.980469 289.101562 284.574219 289.566406 284.574219 L 301.054688 284.574219 C 301.527344 284.574219 301.933594 284.980469 301.933594 285.449219 C 301.933594 285.921875 301.527344 286.300781 301.054688 286.300781 L 296.257812 286.300781 L 296.257812 300.292969 C 296.257812 300.8125 295.832031 301.238281 295.308594 301.238281 C 294.789062 301.238281 294.367188 300.8125 294.367188 300.292969 Z M 294.371094 286.300781 " clip-rule="nonzero"/></clipPath><clipPath id="b0c9a7ada6"><path d="M 311 284.167969 L 313.332031 284.167969 L 313.332031 301.25 L 311 301.25 Z M 311 284.167969 " clip-rule="nonzero"/></clipPath><clipPath id="594c41dad2"><path d="M 311.164062 285.398438 C 311.164062 284.878906 311.585938 284.453125 312.082031 284.453125 C 312.605469 284.453125 313.027344 284.878906 313.027344 285.398438 L 313.027344 300.292969 C 313.027344 300.8125 312.605469 301.234375 312.082031 301.234375 C 311.585938 301.234375 311.164062 300.808594 311.164062 300.292969 Z M 311.164062 285.398438 " clip-rule="nonzero"/></clipPath><clipPath id="f7b4263ac2"><path d="M 322.5 284.167969 L 340 284.167969 L 340 301.667969 L 322.5 301.667969 Z M 322.5 284.167969 " clip-rule="nonzero"/></clipPath><clipPath id="ecb188b345"><path d="M 337.753906 292.890625 L 337.753906 292.847656 C 337.753906 289.085938 335.015625 286.015625 331.230469 286.015625 C 327.441406 286.015625 324.757812 289.042969 324.757812 292.800781 L 324.757812 292.847656 C 324.757812 296.605469 327.5 299.675781 331.285156 299.675781 C 335.066406 299.675781 337.753906 296.648438 337.753906 292.890625 M 322.816406 292.890625 L 322.816406 292.847656 C 322.816406 288.285156 326.246094 284.292969 331.277344 284.292969 C 336.3125 284.292969 339.691406 288.238281 339.691406 292.800781 L 339.691406 292.847656 C 339.691406 297.410156 336.261719 301.402344 331.230469 301.402344 C 326.195312 301.402344 322.816406 297.457031 322.816406 292.894531 " clip-rule="nonzero"/></clipPath><clipPath id="e8330c296b"><path d="M 349.167969 284.167969 L 363.332031 284.167969 L 363.332031 301.25 L 349.167969 301.25 Z M 349.167969 284.167969 " clip-rule="nonzero"/></clipPath><clipPath id="bfb0ad65f7"><path d="M 349.328125 285.425781 C 349.328125 284.929688 349.753906 284.503906 350.25 284.503906 L 350.511719 284.503906 C 350.9375 284.503906 351.195312 284.714844 351.457031 285.046875 L 361.5 297.855469 L 361.5 285.375 C 361.5 284.878906 361.902344 284.453125 362.421875 284.453125 C 362.921875 284.453125 363.320312 284.878906 363.320312 285.375 L 363.320312 300.3125 C 363.320312 300.808594 362.964844 301.1875 362.472656 301.1875 L 362.375 301.1875 C 361.976562 301.1875 361.6875 300.949219 361.410156 300.617188 L 351.148438 287.5 L 351.148438 300.308594 C 351.148438 300.804688 350.75 301.230469 350.230469 301.230469 C 349.734375 301.230469 349.332031 300.804688 349.332031 300.308594 Z M 349.328125 285.425781 " clip-rule="nonzero"/></clipPath><clipPath id="216d5d6086"><path d="M 339.582031 135.417969 L 381 135.417969 L 381 160.832031 L 339.582031 160.832031 Z M 339.582031 135.417969 " clip-rule="nonzero"/></clipPath><clipPath id="dcdaf329ec"><path d="M 364.613281 135.808594 L 364.722656 135.808594 L 380.863281 135.878906 C 380.796875 149.476562 369.757812 160.449219 356.1875 160.449219 L 356.074219 160.449219 L 339.933594 160.382812 C 339.996094 146.792969 351.035156 135.8125 364.613281 135.8125 " clip-rule="nonzero"/></clipPath><clipPath id="ebedb0414b"><path d="M 69 174.582031 L 166.25 174.582031 L 166.25 307.082031 L 69 307.082031 Z M 69 174.582031 " clip-rule="nonzero"/></clipPath><clipPath id="9ff8f10646"><path d="M 136.066406 203.832031 C 131.351562 199.117188 125.367188 196.757812 117.929688 196.757812 C 110.488281 196.757812 104.507812 199.117188 99.609375 203.832031 C 94.886719 208.367188 92.539062 214.351562 92.539062 221.429688 C 92.539062 235.9375 103.238281 246.285156 117.929688 246.285156 C 132.621094 246.285156 143.324219 235.9375 143.324219 221.429688 C 143.324219 214.355469 140.964844 208.367188 136.066406 203.832031 M 143.324219 177.527344 L 166.179688 177.527344 L 166.179688 263.878906 C 166.179688 277.847656 161.464844 288.546875 152.210938 295.984375 C 142.957031 303.421875 131.898438 307.054688 118.832031 307.054688 C 99.242188 307.054688 83.820312 299.429688 75.835938 284.921875 L 95.792969 273.496094 C 100.332031 282.019531 108.308594 286.195312 119.558594 286.195312 C 134.25 286.195312 143.320312 278.207031 143.320312 263.882812 L 143.320312 254.078125 C 136.425781 263.328125 126.8125 267.867188 114.296875 267.867188 C 101.417969 267.867188 90.714844 263.328125 82.003906 254.441406 C 73.484375 245.371094 69.128906 234.308594 69.128906 221.429688 C 69.128906 208.550781 73.480469 197.664062 82.1875 188.597656 C 90.894531 179.527344 101.601562 174.992188 114.296875 174.992188 C 126.8125 174.992188 136.425781 179.523438 143.320312 188.777344 Z M 143.324219 177.527344 " clip-rule="nonzero"/></clipPath><clipPath id="05d69f53a0"><path d="M 182.5 174.582031 L 278.75 174.582031 L 278.75 270.832031 L 182.5 270.832031 Z M 182.5 174.582031 " clip-rule="nonzero"/></clipPath><clipPath id="5fd050ac64"><path d="M 230.566406 247.914062 C 237.636719 247.914062 243.445312 245.558594 248.167969 240.839844 C 252.875 236.121094 255.238281 230.140625 255.238281 222.882812 C 255.238281 215.625 252.871094 209.636719 248.167969 204.921875 C 243.445312 200.203125 237.636719 197.851562 230.566406 197.851562 C 223.496094 197.851562 217.691406 200.199219 212.964844 204.921875 C 208.429688 209.636719 206.082031 215.625 206.082031 222.882812 C 206.082031 230.140625 208.429688 236.121094 212.964844 240.839844 C 217.6875 245.558594 223.492188 247.914062 230.566406 247.914062 M 230.566406 270.769531 C 217.144531 270.769531 205.710938 266.238281 196.460938 256.984375 C 187.210938 247.734375 182.679688 236.304688 182.679688 222.882812 C 182.679688 209.460938 187.214844 198.210938 196.460938 188.957031 C 205.707031 179.703125 217.144531 174.992188 230.566406 174.992188 C 243.988281 174.992188 255.417969 179.703125 264.667969 188.957031 C 273.917969 198.210938 278.632812 209.457031 278.632812 222.882812 C 278.632812 236.308594 273.917969 247.738281 264.667969 256.984375 C 255.417969 266.238281 243.988281 270.769531 230.566406 270.769531 " clip-rule="nonzero"/></clipPath><clipPath id="22fb1c1b57"><path d="M 295.136719 135.808594 L 318.542969 135.808594 L 318.542969 268.230469 L 295.136719 268.230469 Z M 295.136719 135.808594 " clip-rule="nonzero"/></clipPath><clipPath id="01208bff2e"><path d="M 339.9375 177.535156 L 363.335938 177.535156 L 363.335938 268.230469 L 339.9375 268.230469 Z M 339.9375 177.535156 " clip-rule="nonzero"/></clipPath></defs><rect x="-45" width="540" fill="#ffffff" y="-44.999998" height="539.99998" fill-opacity="1"/><g clip-path="url(#d604b14d56)"><rect x="-45" width="540" fill="#f9f9f9" y="-44.999998" height="539.99998" fill-opacity="1"/></g><g clip-path="url(#2479e0a64f)"><g clip-path="url(#5b7290ef3d)"><rect x="-45" width="540" fill="#c6152d" y="-44.999998" height="539.99998" fill-opacity="1"/></g></g><g clip-path="url(#9cc42e4a22)"><g clip-path="url(#ceb98e514a)"><rect x="-45" width="540" fill="#c6152d" y="-44.999998" height="539.99998" fill-opacity="1"/></g></g><g clip-path="url(#a4a4d6831f)"><g clip-path="url(#94b228b322)"><rect x="-45" width="540" fill="#c6152d" y="-44.999998" height="539.99998" fill-opacity="1"/></g></g><g clip-path="url(#5b3d0fed6f)"><g clip-path="url(#ef5d1ee415)"><rect x="-45" width="540" fill="#c6152d" y="-44.999998" height="539.99998" fill-opacity="1"/></g></g><g clip-path="url(#427ebb2bd3)"><g clip-path="url(#ea23fd2f8f)"><rect x="-45" width="540" fill="#c6152d" y="-44.999998" height="539.99998" fill-opacity="1"/></g></g><g clip-path="url(#c363a0384f)"><g clip-path="url(#7e2885b976)"><rect x="-45" width="540" fill="#c6152d" y="-44.999998" height="539.99998" fill-opacity="1"/></g></g><g clip-path="url(#b0c9a7ada6)"><g clip-path="url(#594c41dad2)"><rect x="-45" width="540" fill="#c6152d" y="-44.999998" height="539.99998" fill-opacity="1"/></g></g><g clip-path="url(#f7b4263ac2)"><g clip-path="url(#ecb188b345)"><rect x="-45" width="540" fill="#c6152d" y="-44.999998" height="539.99998" fill-opacity="1"/></g></g><g clip-path="url(#e8330c296b)"><g clip-path="url(#bfb0ad65f7)"><rect x="-45" width="540" fill="#c6152d" y="-44.999998" height="539.99998" fill-opacity="1"/></g></g><g clip-path="url(#216d5d6086)"><g clip-path="url(#dcdaf329ec)"><rect x="-45" width="540" fill="#c6152d" y="-44.999998" height="539.99998" fill-opacity="1"/></g></g><g clip-path="url(#ebedb0414b)"><g clip-path="url(#9ff8f10646)"><rect x="-45" width="540" fill="#c6152d" y="-44.999998" height="539.99998" fill-opacity="1"/></g></g><g clip-path="url(#05d69f53a0)"><g clip-path="url(#5fd050ac64)"><rect x="-45" width="540" fill="#c6152d" y="-44.999998" height="539.99998" fill-opacity="1"/></g></g><g clip-path="url(#22fb1c1b57)"><rect x="-45" width="540" fill="#c6152d" y="-44.999998" height="539.99998" fill-opacity="1"/></g><g clip-path="url(#01208bff2e)"><rect x="-45" width="540" fill="#c6152d" y="-44.999998" height="539.99998" fill-opacity="1"/></g></svg>